<svg xmlns="http://www.w3.org/2000/svg" width="1408.707" height="1664.706" viewBox="0 0 1408.707 1664.706">
  <path id="android" d="M1407.5,1663.5H.5V.5h1407v1663ZM636.037,1324.969H771.655V1548.05a109.965,109.965,0,0,0,1.843,20.33,96.362,96.362,0,0,0,5.528,18.734,95.263,95.263,0,0,0,9.213,17.136,109.2,109.2,0,0,0,28.438,28.439,95.262,95.262,0,0,0,17.136,9.213,96.4,96.4,0,0,0,18.733,5.528,113.076,113.076,0,0,0,40.661,0,96.394,96.394,0,0,0,18.733-5.528,95.256,95.256,0,0,0,17.136-9.213,109.2,109.2,0,0,0,28.438-28.439,95.266,95.266,0,0,0,9.214-17.136,96.4,96.4,0,0,0,5.528-18.734,109.943,109.943,0,0,0,1.843-20.33v-223.08H1047.8a113.571,113.571,0,0,0,21.313-1.965,99.98,99.98,0,0,0,37.835-15.724,115.143,115.143,0,0,0,16.523-13.758,113.4,113.4,0,0,0,13.758-16.584,101.684,101.684,0,0,0,9.828-18.3,103.1,103.1,0,0,0,5.9-20.023,117.887,117.887,0,0,0,1.965-21.743v-654.5H252.771v654.5a117.889,117.889,0,0,0,1.965,21.743,103.108,103.108,0,0,0,5.9,20.023,101.659,101.659,0,0,0,9.827,18.3A116.183,116.183,0,0,0,300.8,1307.28a101.664,101.664,0,0,0,18.3,9.828,103.112,103.112,0,0,0,20.024,5.9,117.89,117.89,0,0,0,21.743,1.965h72.722l.983,223.081a109.941,109.941,0,0,0,1.843,20.33,96.376,96.376,0,0,0,5.528,18.734,95.312,95.312,0,0,0,9.213,17.136,106.489,106.489,0,0,0,12.9,15.54,108.224,108.224,0,0,0,15.478,12.9,93.524,93.524,0,0,0,35.378,14.741,105.688,105.688,0,0,0,19.9,1.843,109.994,109.994,0,0,0,20.33-1.843,96.4,96.4,0,0,0,18.733-5.528,95.27,95.27,0,0,0,17.136-9.213,109.187,109.187,0,0,0,28.438-28.439,95.285,95.285,0,0,0,9.213-17.136,96.389,96.389,0,0,0,5.528-18.734,109.97,109.97,0,0,0,1.843-20.33v-223.08Zm658.432-781.274a107.413,107.413,0,0,0-19.9,1.812,94.376,94.376,0,0,0-35.378,14.5,107.831,107.831,0,0,0-15.478,12.683,103.893,103.893,0,0,0-12.9,15.325,93.328,93.328,0,0,0-9.214,16.982,95.074,95.074,0,0,0-5.527,18.641,109.465,109.465,0,0,0-1.843,20.3v422.576a109.959,109.959,0,0,0,1.843,20.33,96.383,96.383,0,0,0,5.527,18.734,95.281,95.281,0,0,0,9.214,17.137,106.5,106.5,0,0,0,12.9,15.539,108.23,108.23,0,0,0,15.478,12.9,93.508,93.508,0,0,0,35.378,14.741,105.646,105.646,0,0,0,19.9,1.843,109.95,109.95,0,0,0,20.33-1.843,96.383,96.383,0,0,0,18.734-5.527,95.283,95.283,0,0,0,17.136-9.213,109.222,109.222,0,0,0,28.438-28.438,95.251,95.251,0,0,0,9.213-17.137,96.381,96.381,0,0,0,5.528-18.734,109.948,109.948,0,0,0,1.843-20.33V643.933a109.454,109.454,0,0,0-1.843-20.3,95.072,95.072,0,0,0-5.528-18.641,93.291,93.291,0,0,0-9.213-16.982,103.878,103.878,0,0,0-12.9-15.325A106.1,106.1,0,0,0,1350.67,560a95.8,95.8,0,0,0-17.136-9.06,97.651,97.651,0,0,0-18.734-5.436A111.79,111.79,0,0,0,1294.469,543.695Zm-1181.247,0a109.969,109.969,0,0,0-20.33,1.843,96.363,96.363,0,0,0-18.734,5.528,95.308,95.308,0,0,0-17.136,9.213,106.492,106.492,0,0,0-15.54,12.9,108.251,108.251,0,0,0-12.9,15.478,93.525,93.525,0,0,0-14.741,35.378A105.672,105.672,0,0,0,12,643.933v422.576a109.972,109.972,0,0,0,1.843,20.33,96.384,96.384,0,0,0,5.528,18.734,95.279,95.279,0,0,0,9.213,17.137,109.188,109.188,0,0,0,28.438,28.438,95.306,95.306,0,0,0,17.136,9.213,96.4,96.4,0,0,0,18.734,5.527,112.892,112.892,0,0,0,40.63,0,95.1,95.1,0,0,0,18.641-5.527,93.355,93.355,0,0,0,16.983-9.213,103.908,103.908,0,0,0,15.325-12.9,106.114,106.114,0,0,0,12.683-15.539,95.831,95.831,0,0,0,9.06-17.137,97.624,97.624,0,0,0,5.435-18.734,111.758,111.758,0,0,0,1.812-20.33V643.933a105.678,105.678,0,0,0-1.843-19.9,93.516,93.516,0,0,0-14.741-35.378A111.264,111.264,0,0,0,168.5,560.278a93.525,93.525,0,0,0-35.379-14.741A105.66,105.66,0,0,0,113.222,543.695ZM423.765,14a19,19,0,0,0-7.861,1.965,18.244,18.244,0,0,0-4.73,3.808,11.157,11.157,0,0,0-2.4,4.545,12.1,12.1,0,0,0-.062,5.282,21.663,21.663,0,0,0,2.273,6.019l69.774,128.739a467.784,467.784,0,0,0-50.365,29.7,433.532,433.532,0,0,0-44.96,35.04,422.874,422.874,0,0,0-39.555,40.384,435.224,435.224,0,0,0-34.15,45.728,404.965,404.965,0,0,0-27.517,49.536,374.824,374.824,0,0,0-31.447,105.89,401.2,401.2,0,0,0-3.931,56.354H1157.87a401.252,401.252,0,0,0-3.931-56.354,374.813,374.813,0,0,0-31.448-105.89,404.944,404.944,0,0,0-27.517-49.536,440.384,440.384,0,0,0-34.089-45.728,425.878,425.878,0,0,0-39.371-40.384,434.041,434.041,0,0,0-44.653-35.04,465.372,465.372,0,0,0-49.935-29.7L996.7,35.62a21.667,21.667,0,0,0,2.273-6.019,12.105,12.105,0,0,0-.061-5.282,11.159,11.159,0,0,0-2.4-4.545,18.243,18.243,0,0,0-4.729-3.808A19.008,19.008,0,0,0,983.926,14a11.605,11.605,0,0,0-6.552,1.965,17.565,17.565,0,0,0-5.242,5.9L901.375,151.583a487.081,487.081,0,0,0-47.355-18.058,478.475,478.475,0,0,0-48.707-12.9,486.181,486.181,0,0,0-50.058-7.739,513.565,513.565,0,0,0-102.819,0,486.232,486.232,0,0,0-50.058,7.739,478.518,478.518,0,0,0-48.707,12.9,487.1,487.1,0,0,0-47.356,18.058L435.559,21.862a17.562,17.562,0,0,0-5.241-5.9A11.608,11.608,0,0,0,423.765,14ZM911.2,362.871a37.674,37.674,0,0,1-14.618-2.826A40.606,40.606,0,0,1,875.7,339.162a39.225,39.225,0,0,1,0-29.236,40.613,40.613,0,0,1,20.883-20.883,37.68,37.68,0,0,1,14.618-2.825,35.284,35.284,0,0,1,26.534,11.3,38.777,38.777,0,0,1,0,54.05,35.29,35.29,0,0,1-26.534,11.3Zm-414.714,0a35.291,35.291,0,0,1-26.534-11.3,38.778,38.778,0,0,1,0-54.05,35.285,35.285,0,0,1,26.534-11.3,37.679,37.679,0,0,1,14.618,2.825,40.613,40.613,0,0,1,20.883,20.883,39.228,39.228,0,0,1,0,29.236,40.606,40.606,0,0,1-20.883,20.883A37.676,37.676,0,0,1,496.488,362.871Z" transform="translate(0 -0.001)" fill="#fff" stroke="#707070" stroke-width="1"/>
</svg>
